<mxfile host="app.diagrams.net" modified="2024-09-18T03:00:00.000Z" agent="5.0" etag="xxx" version="21.6.5" type="device">
  <diagram name="Hadoop RPC整体架构" id="hadoop-rpc-architecture">
    <mxGraphModel dx="1422" dy="794" grid="1" gridSize="10" guides="1" tooltips="1" connect="1" arrows="1" fold="1" page="1" pageScale="1" pageWidth="1169" pageHeight="827" math="0" shadow="0">
      <root>
        <mxCell id="0" />
        <mxCell id="1" parent="0" />
        
        <!-- 标题 -->
        <mxCell id="title" value="Hadoop RPC整体架构" style="text;html=1;strokeColor=none;fillColor=none;align=center;verticalAlign=middle;whiteSpace=wrap;rounded=0;fontSize=18;fontStyle=1;fontColor=#2c3e50;" vertex="1" parent="1">
          <mxGeometry x="450" y="20" width="250" height="40" as="geometry" />
        </mxCell>
        
        <!-- 客户端层 -->
        <mxCell id="client-layer" value="客户端层 (Client Side)" style="rounded=1;whiteSpace=wrap;html=1;fillColor=#e1d5e7;strokeColor=#9673a6;fontSize=14;fontStyle=1;verticalAlign=top;" vertex="1" parent="1">
          <mxGeometry x="80" y="80" width="350" height="200" as="geometry" />
        </mxCell>
        
        <!-- Client组件 -->
        <mxCell id="client" value="Client" style="rounded=1;whiteSpace=wrap;html=1;fillColor=#dae8fc;strokeColor=#6c8ebf;fontSize=12;fontStyle=1;" vertex="1" parent="1">
          <mxGeometry x="120" y="120" width="100" height="50" as="geometry" />
        </mxCell>
        
        <!-- ConnectionId -->
        <mxCell id="connection-id" value="ConnectionId" style="rounded=1;whiteSpace=wrap;html=1;fillColor=#d5e8d4;strokeColor=#82b366;fontSize=11;" vertex="1" parent="1">
          <mxGeometry x="120" y="190" width="80" height="30" as="geometry" />
        </mxCell>
        
        <!-- Call对象 -->
        <mxCell id="call-object" value="Call对象" style="rounded=1;whiteSpace=wrap;html=1;fillColor=#d5e8d4;strokeColor=#82b366;fontSize=11;" vertex="1" parent="1">
          <mxGeometry x="220" y="190" width="70" height="30" as="geometry" />
        </mxCell>
        
        <!-- SaslRpcClient -->
        <mxCell id="sasl-client" value="SaslRpcClient" style="rounded=1;whiteSpace=wrap;html=1;fillColor=#f8cecc;strokeColor=#b85450;fontSize=11;" vertex="1" parent="1">
          <mxGeometry x="250" y="120" width="100" height="50" as="geometry" />
        </mxCell>
        
        <!-- 连接池 -->
        <mxCell id="connection-pool" value="连接池管理" style="rounded=1;whiteSpace=wrap;html=1;fillColor=#fff2cc;strokeColor=#d6b656;fontSize=11;" vertex="1" parent="1">
          <mxGeometry x="310" y="190" width="80" height="30" as="geometry" />
        </mxCell>
        
        <!-- 网络传输层 -->
        <mxCell id="network-layer" value="网络传输层 (Network Layer)" style="rounded=1;whiteSpace=wrap;html=1;fillColor=#fff2cc;strokeColor=#d6b656;fontSize=14;fontStyle=1;verticalAlign=middle;" vertex="1" parent="1">
          <mxGeometry x="480" y="320" width="200" height="60" as="geometry" />
        </mxCell>
        
        <!-- 服务端层 -->
        <mxCell id="server-layer" value="服务端层 (Server Side)" style="rounded=1;whiteSpace=wrap;html=1;fillColor=#e1d5e7;strokeColor=#9673a6;fontSize=14;fontStyle=1;verticalAlign=top;" vertex="1" parent="1">
          <mxGeometry x="750" y="80" width="350" height="200" as="geometry" />
        </mxCell>
        
        <!-- Server组件 -->
        <mxCell id="server" value="Server" style="rounded=1;whiteSpace=wrap;html=1;fillColor=#dae8fc;strokeColor=#6c8ebf;fontSize=12;fontStyle=1;" vertex="1" parent="1">
          <mxGeometry x="790" y="120" width="100" height="50" as="geometry" />
        </mxCell>
        
        <!-- Listener -->
        <mxCell id="listener" value="Listener" style="rounded=1;whiteSpace=wrap;html=1;fillColor=#d5e8d4;strokeColor=#82b366;fontSize=11;" vertex="1" parent="1">
          <mxGeometry x="790" y="190" width="70" height="30" as="geometry" />
        </mxCell>
        
        <!-- CallQueueManager -->
        <mxCell id="call-queue" value="CallQueueManager" style="rounded=1;whiteSpace=wrap;html=1;fillColor=#d5e8d4;strokeColor=#82b366;fontSize=11;" vertex="1" parent="1">
          <mxGeometry x="880" y="190" width="110" height="30" as="geometry" />
        </mxCell>
        
        <!-- Handler线程池 -->
        <mxCell id="handler-pool" value="Handler线程池" style="rounded=1;whiteSpace=wrap;html=1;fillColor=#f8cecc;strokeColor=#b85450;fontSize=11;" vertex="1" parent="1">
          <mxGeometry x="920" y="120" width="100" height="50" as="geometry" />
        </mxCell>
        
        <!-- ConnectionManager -->
        <mxCell id="connection-mgr" value="ConnectionManager" style="rounded=1;whiteSpace=wrap;html=1;fillColor=#fff2cc;strokeColor=#d6b656;fontSize=11;" vertex="1" parent="1">
          <mxGeometry x="1010" y="190" width="110" height="30" as="geometry" />
        </mxCell>
        
        <!-- RPC引擎层 -->
        <mxCell id="engine-layer" value="RPC引擎层 (RpcEngine Layer)" style="rounded=1;whiteSpace=wrap;html=1;fillColor=#e1d5e7;strokeColor=#9673a6;fontSize=14;fontStyle=1;verticalAlign=top;" vertex="1" parent="1">
          <mxGeometry x="200" y="450" width="700" height="150" as="geometry" />
        </mxCell>
        
        <!-- RpcEngine接口 -->
        <mxCell id="rpc-engine" value="RpcEngine接口" style="rounded=1;whiteSpace=wrap;html=1;fillColor=#dae8fc;strokeColor=#6c8ebf;fontSize=12;fontStyle=1;" vertex="1" parent="1">
          <mxGeometry x="500" y="480" width="120" height="40" as="geometry" />
        </mxCell>
        
        <!-- WritableRpcEngine -->
        <mxCell id="writable-engine" value="WritableRpcEngine" style="rounded=1;whiteSpace=wrap;html=1;fillColor=#d5e8d4;strokeColor=#82b366;fontSize=11;" vertex="1" parent="1">
          <mxGeometry x="280" y="550" width="120" height="30" as="geometry" />
        </mxCell>
        
        <!-- ProtobufRpcEngine2 -->
        <mxCell id="protobuf-engine" value="ProtobufRpcEngine2" style="rounded=1;whiteSpace=wrap;html=1;fillColor=#d5e8d4;strokeColor=#82b366;fontSize=11;" vertex="1" parent="1">
          <mxGeometry x="720" y="550" width="120" height="30" as="geometry" />
        </mxCell>
        
        <!-- RPC.RpcKind -->
        <mxCell id="rpc-kind" value="RPC.RpcKind" style="rounded=1;whiteSpace=wrap;html=1;fillColor=#fff2cc;strokeColor=#d6b656;fontSize=11;" vertex="1" parent="1">
          <mxGeometry x="500" y="550" width="100" height="30" as="geometry" />
        </mxCell>
        
        <!-- 监控层 -->
        <mxCell id="monitoring-layer" value="监控层 (Monitoring Layer)" style="rounded=1;whiteSpace=wrap;html=1;fillColor=#e1d5e7;strokeColor=#9673a6;fontSize=14;fontStyle=1;verticalAlign=top;" vertex="1" parent="1">
          <mxGeometry x="300" y="650" width="500" height="100" as="geometry" />
        </mxCell>
        
        <!-- RpcMetrics -->
        <mxCell id="rpc-metrics" value="RpcMetrics" style="rounded=1;whiteSpace=wrap;html=1;fillColor=#d5e8d4;strokeColor=#82b366;fontSize=11;" vertex="1" parent="1">
          <mxGeometry x="350" y="690" width="100" height="30" as="geometry" />
        </mxCell>
        
        <!-- RpcDetailedMetrics -->
        <mxCell id="detailed-metrics" value="RpcDetailedMetrics" style="rounded=1;whiteSpace=wrap;html=1;fillColor=#d5e8d4;strokeColor=#82b366;fontSize=11;" vertex="1" parent="1">
          <mxGeometry x="500" y="690" width="130" height="30" as="geometry" />
        </mxCell>
        
        <!-- 性能监控 -->
        <mxCell id="perf-monitoring" value="性能监控指标" style="rounded=1;whiteSpace=wrap;html=1;fillColor=#fff2cc;strokeColor=#d6b656;fontSize=11;" vertex="1" parent="1">
          <mxGeometry x="680" y="690" width="100" height="30" as="geometry" />
        </mxCell>
        
        <!-- 连接线 -->
        <!-- 客户端内部连接 -->
        <mxCell id="client-conn1" value="" style="endArrow=classic;startArrow=classic;html=1;rounded=0;strokeWidth=2;strokeColor=#27ae60;" edge="1" parent="1">
          <mxGeometry width="50" height="50" relative="1" as="geometry">
            <mxPoint x="170" y="180" as="sourcePoint" />
            <mxPoint x="170" y="180" as="targetPoint" />
          </mxGeometry>
        </mxCell>
        
        <mxCell id="client-conn2" value="" style="endArrow=classic;startArrow=classic;html=1;rounded=0;strokeWidth=2;strokeColor=#27ae60;" edge="1" parent="1">
          <mxGeometry width="50" height="50" relative="1" as="geometry">
            <mxPoint x="230" y="145" as="sourcePoint" />
            <mxPoint x="240" y="145" as="targetPoint" />
          </mxGeometry>
        </mxCell>
        
        <!-- 服务端内部连接 -->
        <mxCell id="server-conn1" value="" style="endArrow=classic;startArrow=classic;html=1;rounded=0;strokeWidth=2;strokeColor=#f39c12;" edge="1" parent="1">
          <mxGeometry width="50" height="50" relative="1" as="geometry">
            <mxPoint x="900" y="145" as="sourcePoint" />
            <mxPoint x="910" y="145" as="targetPoint" />
          </mxGeometry>
        </mxCell>
        
        <mxCell id="server-conn2" value="" style="endArrow=classic;html=1;rounded=0;strokeWidth=2;strokeColor=#f39c12;" edge="1" parent="1">
          <mxGeometry width="50" height="50" relative="1" as="geometry">
            <mxPoint x="840" y="180" as="sourcePoint" />
            <mxPoint x="920" y="180" as="targetPoint" />
          </mxGeometry>
        </mxCell>
        
        <!-- 客户端到网络层 -->
        <mxCell id="client-to-network" value="" style="endArrow=classic;html=1;rounded=0;strokeWidth=3;strokeColor=#e74c3c;" edge="1" parent="1">
          <mxGeometry width="50" height="50" relative="1" as="geometry">
            <mxPoint x="430" y="200" as="sourcePoint" />
            <mxPoint x="480" y="340" as="targetPoint" />
          </mxGeometry>
        </mxCell>
        
        <!-- 网络层到服务端 -->
        <mxCell id="network-to-server" value="" style="endArrow=classic;html=1;rounded=0;strokeWidth=3;strokeColor=#e74c3c;" edge="1" parent="1">
          <mxGeometry width="50" height="50" relative="1" as="geometry">
            <mxPoint x="680" y="340" as="sourcePoint" />
            <mxPoint x="750" y="200" as="targetPoint" />
          </mxGeometry>
        </mxCell>
        
        <!-- RPC引擎连接 -->
        <mxCell id="engine-conn1" value="" style="endArrow=classic;html=1;rounded=0;strokeWidth=2;strokeColor=#9b59b6;" edge="1" parent="1">
          <mxGeometry width="50" height="50" relative="1" as="geometry">
            <mxPoint x="500" y="530" as="sourcePoint" />
            <mxPoint x="350" y="550" as="targetPoint" />
          </mxGeometry>
        </mxCell>
        
        <mxCell id="engine-conn2" value="" style="endArrow=classic;html=1;rounded=0;strokeWidth=2;strokeColor=#9b59b6;" edge="1" parent="1">
          <mxGeometry width="50" height="50" relative="1" as="geometry">
            <mxPoint x="620" y="530" as="sourcePoint" />
            <mxPoint x="770" y="550" as="targetPoint" />
          </mxGeometry>
        </mxCell>
        
        <!-- 到监控层的连接 -->
        <mxCell id="to-monitoring" value="" style="endArrow=classic;html=1;rounded=0;strokeWidth=2;strokeColor=#8e44ad;" edge="1" parent="1">
          <mxGeometry width="50" height="50" relative="1" as="geometry">
            <mxPoint x="580" y="600" as="sourcePoint" />
            <mxPoint x="580" y="650" as="targetPoint" />
          </mxGeometry>
        </mxCell>
        
        <!-- 标注 -->
        <mxCell id="label1" value="RPC调用" style="text;html=1;strokeColor=none;fillColor=none;align=center;verticalAlign=middle;whiteSpace=wrap;rounded=0;fontSize=10;fontColor=#e74c3c;" vertex="1" parent="1">
          <mxGeometry x="430" y="250" width="60" height="20" as="geometry" />
        </mxCell>
        
        <mxCell id="label2" value="协议引擎" style="text;html=1;strokeColor=none;fillColor=none;align=center;verticalAlign=middle;whiteSpace=wrap;rounded=0;fontSize=10;fontColor=#9b59b6;" vertex="1" parent="1">
          <mxGeometry x="420" y="540" width="60" height="20" as="geometry" />
        </mxCell>
        
        <mxCell id="label3" value="性能监控" style="text;html=1;strokeColor=none;fillColor=none;align=center;verticalAlign=middle;whiteSpace=wrap;rounded=0;fontSize=10;fontColor=#8e44ad;" vertex="1" parent="1">
          <mxGeometry x="590" y="620" width="60" height="20" as="geometry" />
        </mxCell>
        
      </root>
    </mxGraphModel>
  </diagram>
</mxfile>
